<svg width="810" height="116" viewBox="0 0 810 116" fill="none" xmlns="http://www.w3.org/2000/svg">
<mask id="path-1-outside-1_959_371" maskUnits="userSpaceOnUse" x="0" y="0" width="810" height="116" fill="black">
<rect fill="white" width="810" height="116"/>
<path d="M93.7553 4.98352H124.44L75.2471 111H51.7059L2.51294 4.98352H34.1718L63.3953 75.9318H64.3694L93.7553 4.98352ZM167.483 111H139.071V4.98352H167.483V111ZM246.602 111H197.733V4.98352H246.602C266.409 4.98352 281.021 10.5035 290.924 20.8941C300.016 30.4729 305.049 43.4612 305.049 57.9106C305.049 72.6847 299.853 86.3224 290.112 95.9012C280.858 104.993 267.545 111 246.602 111ZM226.145 87.1341H245.952C256.83 87.1341 262.35 84.6988 267.058 80.1529C272.578 74.7953 275.663 68.1388 275.663 58.2353C275.663 48.9812 272.903 42.1624 267.87 36.8047C263.162 31.7718 257.642 28.8494 245.952 28.8494H226.145V87.1341ZM393.02 45.5718V68.4635H355.679V87.1341H421.432V111H327.267V4.98352H417.86V28.8494H355.679V45.5718H393.02ZM431.231 57.7482C431.231 26.9012 457.695 1.73647 491.464 1.73647C525.234 1.73647 552.347 26.9012 552.347 57.7482C552.347 89.0824 525.234 114.247 491.464 114.247C457.695 114.247 431.231 89.0824 431.231 57.7482ZM460.617 57.7482C460.617 75.6071 474.092 90.5435 491.464 90.5435C508.998 90.5435 522.798 75.6071 522.798 57.7482C522.798 40.2141 508.998 25.6024 491.464 25.6024C474.092 25.6024 460.617 40.2141 460.617 57.7482ZM602.221 111H573.809V4.98352H632.905C648.978 4.98352 659.044 9.69177 665.863 16.8353C671.545 22.8423 674.955 30.6353 674.955 39.4024C674.955 52.3906 667.486 62.6188 655.472 68.7882L679.825 111H647.679L627.385 73.6588H602.221V111ZM634.529 28.0376H602.221V50.6047H634.529C641.185 50.6047 646.543 46.5459 646.543 39.24C646.543 36.3176 645.406 33.3953 643.458 31.2847C640.861 28.5247 637.451 28.0376 634.529 28.0376ZM715.108 111H685.073L734.266 4.98352H757.807L807 111H775.99L769.171 94.7647H721.764L715.108 111ZM744.981 38.7529L730.856 72.6847H760.08L745.955 38.7529H744.981Z"/>
</mask>
<path d="M93.7553 4.98352H124.44L75.2471 111H51.7059L2.51294 4.98352H34.1718L63.3953 75.9318H64.3694L93.7553 4.98352ZM167.483 111H139.071V4.98352H167.483V111ZM246.602 111H197.733V4.98352H246.602C266.409 4.98352 281.021 10.5035 290.924 20.8941C300.016 30.4729 305.049 43.4612 305.049 57.9106C305.049 72.6847 299.853 86.3224 290.112 95.9012C280.858 104.993 267.545 111 246.602 111ZM226.145 87.1341H245.952C256.83 87.1341 262.35 84.6988 267.058 80.1529C272.578 74.7953 275.663 68.1388 275.663 58.2353C275.663 48.9812 272.903 42.1624 267.87 36.8047C263.162 31.7718 257.642 28.8494 245.952 28.8494H226.145V87.1341ZM393.02 45.5718V68.4635H355.679V87.1341H421.432V111H327.267V4.98352H417.86V28.8494H355.679V45.5718H393.02ZM431.231 57.7482C431.231 26.9012 457.695 1.73647 491.464 1.73647C525.234 1.73647 552.347 26.9012 552.347 57.7482C552.347 89.0824 525.234 114.247 491.464 114.247C457.695 114.247 431.231 89.0824 431.231 57.7482ZM460.617 57.7482C460.617 75.6071 474.092 90.5435 491.464 90.5435C508.998 90.5435 522.798 75.6071 522.798 57.7482C522.798 40.2141 508.998 25.6024 491.464 25.6024C474.092 25.6024 460.617 40.2141 460.617 57.7482ZM602.221 111H573.809V4.98352H632.905C648.978 4.98352 659.044 9.69177 665.863 16.8353C671.545 22.8423 674.955 30.6353 674.955 39.4024C674.955 52.3906 667.486 62.6188 655.472 68.7882L679.825 111H647.679L627.385 73.6588H602.221V111ZM634.529 28.0376H602.221V50.6047H634.529C641.185 50.6047 646.543 46.5459 646.543 39.24C646.543 36.3176 645.406 33.3953 643.458 31.2847C640.861 28.5247 637.451 28.0376 634.529 28.0376ZM715.108 111H685.073L734.266 4.98352H757.807L807 111H775.99L769.171 94.7647H721.764L715.108 111ZM744.981 38.7529L730.856 72.6847H760.08L745.955 38.7529H744.981Z" fill="url(#paint0_linear_959_371)"/>
<path d="M93.7553 4.98352V3.63058H92.8513L92.5053 4.4658L93.7553 4.98352ZM124.44 4.98352L125.667 5.55299L126.559 3.63058H124.44V4.98352ZM75.2471 111V112.353H76.1108L76.4743 111.569L75.2471 111ZM51.7059 111L50.4786 111.569L50.8422 112.353H51.7059V111ZM2.51294 4.98352V3.63058H0.393664L1.28568 5.55299L2.51294 4.98352ZM34.1718 4.98352L35.4227 4.46825L35.0777 3.63058H34.1718V4.98352ZM63.3953 75.9318L62.1443 76.447L62.4894 77.2847H63.3953V75.9318ZM64.3694 75.9318V77.2847H65.2734L65.6194 76.4495L64.3694 75.9318ZM93.7553 6.33646H124.44V3.63058H93.7553V6.33646ZM123.213 4.41406L74.0198 110.431L76.4743 111.569L125.667 5.55299L123.213 4.41406ZM75.2471 109.647H51.7059V112.353H75.2471V109.647ZM52.9331 110.431L3.7402 4.41406L1.28568 5.55299L50.4786 111.569L52.9331 110.431ZM2.51294 6.33646H34.1718V3.63058H2.51294V6.33646ZM32.9208 5.4988L62.1443 76.447L64.6463 75.4165L35.4227 4.46825L32.9208 5.4988ZM63.3953 77.2847H64.3694V74.5788H63.3953V77.2847ZM65.6194 76.4495L95.0053 5.50124L92.5053 4.4658L63.1194 75.414L65.6194 76.4495ZM167.483 111V112.353H168.835V111H167.483ZM139.071 111H137.718V112.353H139.071V111ZM139.071 4.98352V3.63058H137.718V4.98352H139.071ZM167.483 4.98352H168.835V3.63058H167.483V4.98352ZM167.483 109.647H139.071V112.353H167.483V109.647ZM140.424 111V4.98352H137.718V111H140.424ZM139.071 6.33646H167.483V3.63058H139.071V6.33646ZM166.13 4.98352V111H168.835V4.98352H166.13ZM197.733 111H196.381V112.353H197.733V111ZM197.733 4.98352V3.63058H196.381V4.98352H197.733ZM290.924 20.8941L291.905 19.9627L291.903 19.9607L290.924 20.8941ZM290.112 95.9012L291.06 96.8663L291.061 96.8659L290.112 95.9012ZM226.145 87.1341H224.792V88.4871H226.145V87.1341ZM267.058 80.1529L267.998 81.1263L268 81.1238L267.058 80.1529ZM267.87 36.8047L266.882 37.729L266.884 37.731L267.87 36.8047ZM226.145 28.8494V27.4965H224.792V28.8494H226.145ZM246.602 109.647H197.733V112.353H246.602V109.647ZM199.086 111V4.98352H196.381V111H199.086ZM197.733 6.33646H246.602V3.63058H197.733V6.33646ZM246.602 6.33646C266.156 6.33646 280.367 11.7791 289.945 21.8276L291.903 19.9607C281.674 9.22797 266.662 3.63058 246.602 3.63058V6.33646ZM289.943 21.8255C298.778 31.1339 303.696 43.7805 303.696 57.9106H306.402C306.402 43.1418 301.254 29.812 291.905 19.9627L289.943 21.8255ZM303.696 57.9106C303.696 72.3725 298.612 85.6454 289.164 94.9365L291.061 96.8659C301.095 86.9993 306.402 72.9969 306.402 57.9106H303.696ZM289.164 94.9361C280.207 103.736 267.257 109.647 246.602 109.647V112.353C267.834 112.353 281.51 106.249 291.06 96.8663L289.164 94.9361ZM226.145 88.4871H245.952V85.7812H226.145V88.4871ZM245.952 88.4871C251.486 88.4871 255.75 87.8686 259.27 86.6238C262.81 85.3718 265.529 83.5105 267.998 81.1262L266.118 79.1796C263.88 81.3413 261.484 82.9706 258.368 84.0727C255.231 85.182 251.297 85.7812 245.952 85.7812V88.4871ZM268 81.1238C273.799 75.4954 277.016 68.4811 277.016 58.2353H274.31C274.31 67.7965 271.357 74.0952 266.116 79.1821L268 81.1238ZM277.016 58.2353C277.016 48.6759 274.15 41.5139 268.856 35.8784L266.884 37.731C271.656 42.8108 274.31 49.2865 274.31 58.2353H277.016ZM268.858 35.8804C266.403 33.2558 263.686 31.1323 260.028 29.682C256.389 28.2394 251.904 27.4965 245.952 27.4965V30.2023C251.69 30.2023 255.81 30.9206 259.03 32.1974C262.232 33.4666 264.629 35.3207 266.882 37.729L268.858 35.8804ZM245.952 27.4965H226.145V30.2023H245.952V27.4965ZM224.792 28.8494V87.1341H227.498V28.8494H224.792ZM393.02 45.5718H394.373V44.2188H393.02V45.5718ZM393.02 68.4635V69.8165H394.373V68.4635H393.02ZM355.679 68.4635V67.1106H354.326V68.4635H355.679ZM355.679 87.1341H354.326V88.4871H355.679V87.1341ZM421.432 87.1341H422.785V85.7812H421.432V87.1341ZM421.432 111V112.353H422.785V111H421.432ZM327.267 111H325.914V112.353H327.267V111ZM327.267 4.98352V3.63058H325.914V4.98352H327.267ZM417.86 4.98352H419.213V3.63058H417.86V4.98352ZM417.86 28.8494V30.2023H419.213V28.8494H417.86ZM355.679 28.8494V27.4965H354.326V28.8494H355.679ZM355.679 45.5718H354.326V46.9247H355.679V45.5718ZM391.667 45.5718V68.4635H394.373V45.5718H391.667ZM393.02 67.1106H355.679V69.8165H393.02V67.1106ZM354.326 68.4635V87.1341H357.032V68.4635H354.326ZM355.679 88.4871H421.432V85.7812H355.679V88.4871ZM420.079 87.1341V111H422.785V87.1341H420.079ZM421.432 109.647H327.267V112.353H421.432V109.647ZM328.62 111V4.98352H325.914V111H328.62ZM327.267 6.33646H417.86V3.63058H327.267V6.33646ZM416.507 4.98352V28.8494H419.213V4.98352H416.507ZM417.86 27.4965H355.679V30.2023H417.86V27.4965ZM354.326 28.8494V45.5718H357.032V28.8494H354.326ZM355.679 46.9247H393.02V44.2188H355.679V46.9247ZM432.584 57.7482C432.584 27.7308 458.357 3.08941 491.464 3.08941V0.383527C457.033 0.383527 429.878 26.0715 429.878 57.7482H432.584ZM491.464 3.08941C524.591 3.08941 550.994 27.7491 550.994 57.7482H553.699C553.699 26.0533 525.876 0.383527 491.464 0.383527V3.08941ZM550.994 57.7482C550.994 88.2418 524.583 112.894 491.464 112.894V115.6C525.884 115.6 553.699 89.9229 553.699 57.7482H550.994ZM491.464 112.894C458.365 112.894 432.584 88.2601 432.584 57.7482H429.878C429.878 89.9047 457.025 115.6 491.464 115.6V112.894ZM459.264 57.7482C459.264 76.2581 473.253 91.8965 491.464 91.8965V89.1906C474.932 89.1906 461.97 74.956 461.97 57.7482H459.264ZM491.464 91.8965C509.816 91.8965 524.151 76.2819 524.151 57.7482H521.445C521.445 74.9322 508.181 89.1906 491.464 89.1906V91.8965ZM524.151 57.7482C524.151 39.5124 509.79 24.2494 491.464 24.2494V26.9553C508.206 26.9553 521.445 40.9159 521.445 57.7482H524.151ZM491.464 24.2494C473.278 24.2494 459.264 39.536 459.264 57.7482H461.97C461.97 40.8922 474.907 26.9553 491.464 26.9553V24.2494ZM602.221 111V112.353H603.574V111H602.221ZM573.809 111H572.456V112.353H573.809V111ZM573.809 4.98352V3.63058H572.456V4.98352H573.809ZM665.863 16.8353L666.846 15.9055L666.842 15.9011L665.863 16.8353ZM655.472 68.7882L654.854 67.5847L653.59 68.2337L654.3 69.4643L655.472 68.7882ZM679.825 111V112.353H682.168L680.997 110.324L679.825 111ZM647.679 111L646.491 111.646L646.875 112.353H647.679V111ZM627.385 73.6588L628.574 73.0128L628.19 72.3059H627.385V73.6588ZM602.221 73.6588V72.3059H600.868V73.6588H602.221ZM602.221 28.0376V26.6847H600.868V28.0376H602.221ZM602.221 50.6047H600.868V51.9576H602.221V50.6047ZM643.458 31.2847L644.452 30.367L644.443 30.3574L643.458 31.2847ZM602.221 109.647H573.809V112.353H602.221V109.647ZM575.162 111V4.98352H572.456V111H575.162ZM573.809 6.33646H632.905V3.63058H573.809V6.33646ZM632.905 6.33646C648.684 6.33646 658.369 10.9435 664.884 17.7695L666.842 15.9011C659.72 8.44004 649.272 3.63058 632.905 3.63058V6.33646ZM664.88 17.765C670.341 23.5377 673.602 31.0037 673.602 39.4024H676.308C676.308 30.2669 672.75 22.147 666.846 15.9055L664.88 17.765ZM673.602 39.4024C673.602 51.7836 666.513 61.5976 654.854 67.5847L656.09 69.9918C668.46 63.6401 676.308 52.9976 676.308 39.4024H673.602ZM654.3 69.4643L678.653 111.676L680.997 110.324L656.644 68.1121L654.3 69.4643ZM679.825 109.647H647.679V112.353H679.825V109.647ZM648.868 110.354L628.574 73.0128L626.197 74.3049L646.491 111.646L648.868 110.354ZM627.385 72.3059H602.221V75.0118H627.385V72.3059ZM600.868 73.6588V111H603.574V73.6588H600.868ZM634.529 26.6847H602.221V29.3906H634.529V26.6847ZM600.868 28.0376V50.6047H603.574V28.0376H600.868ZM602.221 51.9576H634.529V49.2518H602.221V51.9576ZM634.529 51.9576C638.124 51.9576 641.467 50.8606 643.93 48.6738C646.414 46.4688 647.896 43.248 647.896 39.24H645.19C645.19 42.5379 643.993 44.9995 642.134 46.6503C640.254 48.3194 637.59 49.2518 634.529 49.2518V51.9576ZM647.896 39.24C647.896 35.9825 646.635 32.7311 644.452 30.367L642.464 32.2024C644.178 34.0594 645.19 36.6528 645.19 39.24H647.896ZM644.443 30.3574C641.457 27.1845 637.571 26.6847 634.529 26.6847V29.3906C637.331 29.3906 640.264 29.8649 642.473 32.212L644.443 30.3574ZM715.108 111V112.353H716.015L716.36 111.513L715.108 111ZM685.073 111L683.845 110.431L682.953 112.353H685.073V111ZM734.266 4.98352V3.63058H733.402L733.038 4.41406L734.266 4.98352ZM757.807 4.98352L759.034 4.41406L758.67 3.63058H757.807V4.98352ZM807 111V112.353H809.119L808.227 110.431L807 111ZM775.99 111L774.743 111.524L775.091 112.353H775.99V111ZM769.171 94.7647L770.419 94.2408L770.071 93.4118H769.171V94.7647ZM721.764 94.7647V93.4118H720.857L720.513 94.2515L721.764 94.7647ZM744.981 38.7529V37.4H744.079L743.732 38.233L744.981 38.7529ZM730.856 72.6847L729.607 72.1648L728.827 74.0376H730.856V72.6847ZM760.08 72.6847V74.0376H762.108L761.329 72.1648L760.08 72.6847ZM745.955 38.7529L747.204 38.233L746.857 37.4H745.955V38.7529ZM715.108 109.647H685.073V112.353H715.108V109.647ZM686.3 111.569L735.493 5.55299L733.038 4.41406L683.845 110.431L686.3 111.569ZM734.266 6.33646H757.807V3.63058H734.266V6.33646ZM756.579 5.55299L805.772 111.569L808.227 110.431L759.034 4.41406L756.579 5.55299ZM807 109.647H775.99V112.353H807V109.647ZM777.238 110.476L770.419 94.2408L767.924 95.2886L774.743 111.524L777.238 110.476ZM769.171 93.4118H721.764V96.1176H769.171V93.4118ZM720.513 94.2515L713.856 110.487L716.36 111.513L723.016 95.2779L720.513 94.2515ZM743.732 38.233L729.607 72.1648L732.105 73.2046L746.23 39.2729L743.732 38.233ZM730.856 74.0376H760.08V71.3318H730.856V74.0376ZM761.329 72.1648L747.204 38.233L744.706 39.2729L758.831 73.2046L761.329 72.1648ZM745.955 37.4H744.981V40.1059H745.955V37.4Z" fill="url(#paint1_linear_959_371)" mask="url(#path-1-outside-1_959_371)"/>
<defs>
<linearGradient id="paint0_linear_959_371" x1="19.8908" y1="20.431" x2="806.9" y2="112.066" gradientUnits="userSpaceOnUse">
<stop stop-color="white"/>
<stop offset="0.504953" stop-color="#AE4B18"/>
<stop offset="1" stop-color="#B54005"/>
</linearGradient>
<linearGradient id="paint1_linear_959_371" x1="19.8908" y1="20.431" x2="806.9" y2="112.066" gradientUnits="userSpaceOnUse">
<stop stop-color="white"/>
<stop offset="0.173344" stop-color="#AE4B18"/>
<stop offset="0.438455" stop-color="#B04C19"/>
<stop offset="0.736351" stop-color="#83330A"/>
<stop offset="1" stop-color="#B54005"/>
</linearGradient>
</defs>
</svg>
